<svg width="36" height="36" viewBox="0 0 36 36" fill="none" xmlns="http://www.w3.org/2000/svg">
<g clip-path="url(#clip0_798_324)">
<path d="M33.8698 8.32095L27.9998 2.42095C27.6119 2.03501 27.087 1.81836 26.5398 1.81836C25.9926 1.81836 25.4677 2.03501 25.0798 2.42095L4.26981 23.2009L2.36981 31.4009C2.30427 31.7007 2.30652 32.0113 2.37639 32.3101C2.44626 32.6089 2.582 32.8883 2.77368 33.1279C2.96536 33.3675 3.20814 33.5612 3.48429 33.695C3.76044 33.8287 4.06298 33.8991 4.36981 33.9009C4.51278 33.9154 4.65684 33.9154 4.79981 33.9009L13.0898 32.0009L33.8698 11.2409C34.2557 10.8531 34.4724 10.3281 34.4724 9.78095C34.4724 9.23376 34.2557 8.70884 33.8698 8.32095ZM12.0898 30.2009L4.31981 31.8309L6.08981 24.2109L21.6598 8.70095L27.6598 14.7009L12.0898 30.2009ZM28.9998 13.2509L22.9998 7.25095L26.4798 3.79095L32.3798 9.79095L28.9998 13.2509Z" fill="black"/>
</g>
<defs>
<clipPath id="clip0_798_324">
<rect width="36" height="36" fill="white"/>
</clipPath>
</defs>
</svg>
